<?xml version="1.0" encoding="iso-8859-1"?>
<!-- Generator: Adobe Illustrator 18.0.0, SVG Export Plug-In . SVG Version: 6.00 Build 0)  -->
<!DOCTYPE svg PUBLIC "-//W3C//DTD SVG 1.1//EN" "http://www.w3.org/Graphics/SVG/1.1/DTD/svg11.dtd">
<svg version="1.1" id="Capa_1" xmlns="http://www.w3.org/2000/svg" xmlns:xlink="http://www.w3.org/1999/xlink" x="0px" y="0px"
	 viewBox="0 0 60.015 60.015" style="enable-background:new 0 0 60.015 60.015;" xml:space="preserve">
<g>
	<path d="M42.007,0h-24c-9.925,0-18,8.075-18,18v14c0,9.59,7.538,17.452,17,17.973v8.344c0,0.689,0.411,1.305,1.048,1.568
		c0.211,0.087,0.432,0.13,0.651,0.13c0.44,0,0.873-0.173,1.198-0.498l1.876-1.876C26.708,52.714,33.259,50,40.227,50h1.781
		c9.925,0,18-8.075,18-18V18C60.007,8.075,51.933,0,42.007,0z M58.007,32c0,8.822-7.178,16-16,16h-1.781
		c-7.502,0-14.555,2.922-19.86,8.227l-1.359,1.359V49v-1v-4c0-0.553-0.448-1-1-1s-1,0.447-1,1v3.949c-8.356-0.52-15-7.465-15-15.949
		V18c0-8.822,7.178-16,16-16h24c8.822,0,16,7.178,16,16V32z"/>
	<path d="M17.007,21c-2.206,0-4,1.794-4,4s1.794,4,4,4s4-1.794,4-4S19.213,21,17.007,21z M17.007,27c-1.103,0-2-0.897-2-2
		s0.897-2,2-2s2,0.897,2,2S18.11,27,17.007,27z"/>
	<path d="M30.007,21c-2.206,0-4,1.794-4,4s1.794,4,4,4s4-1.794,4-4S32.213,21,30.007,21z M30.007,27c-1.103,0-2-0.897-2-2
		s0.897-2,2-2s2,0.897,2,2S31.11,27,30.007,27z"/>
	<path d="M43.007,21c-2.206,0-4,1.794-4,4s1.794,4,4,4s4-1.794,4-4S45.213,21,43.007,21z M43.007,27c-1.103,0-2-0.897-2-2
		s0.897-2,2-2s2,0.897,2,2S44.11,27,43.007,27z"/>
</g>
<g>
</g>
<g>
</g>
<g>
</g>
<g>
</g>
<g>
</g>
<g>
</g>
<g>
</g>
<g>
</g>
<g>
</g>
<g>
</g>
<g>
</g>
<g>
</g>
<g>
</g>
<g>
</g>
<g>
</g>
</svg>
